<svg xmlns="http://www.w3.org/2000/svg" viewBox="0 0 512 512">
  <rect width="512" height="512" rx="120" fill="#10121a" />
  <circle cx="256" cy="256" r="178" fill="#f6f1e8" opacity="0.12" />
  <path
    d="M166 190c0-38 31-69 69-69h47c36 0 65 29 65 65 0 30-19 54-49 62l-66 17c-13 3-22 15-22 28 0 16 13 29 29 29h33c17 0 32-10 38-25l8-19h58l-7 18c-16 41-56 67-100 67h-31c-47 0-85-38-85-85 0-39 27-72 65-81l65-16c8-2 14-10 14-19 0-10-8-18-18-18h-49c-13 0-24 8-28 20l-5 15h-61l6-18Z"
    fill="#ef7d3b"
  />
  <circle cx="377" cy="144" r="43" fill="#70d6a8" />
</svg>
