<svg xmlns="http://www.w3.org/2000/svg" viewBox="0 0 512 512">
  <rect width="512" height="512" fill="#10121a" />
  <circle cx="256" cy="256" r="204" fill="#ef7d3b" opacity="0.14" />
  <rect x="116" y="116" width="280" height="280" rx="80" fill="#f6f1e8" />
  <path
    d="M184 244c0-44 36-80 80-80h24c40 0 72 32 72 72 0 33-21 60-53 69l-57 15c-12 3-20 14-20 26 0 15 12 28 28 28h26c17 0 32-10 39-26l4-9h49l-5 11c-16 39-53 64-95 64h-23c-44 0-79-35-79-79 0-37 24-68 60-77l57-15c9-2 15-10 15-19 0-11-9-20-20-20h-30c-14 0-26 9-30 22l-3 8h-50l4-14Z"
    fill="#10121a"
  />
  <circle cx="356" cy="164" r="30" fill="#70d6a8" />
</svg>
